<?xml version="1.0" encoding="UTF-8" standalone="no"?>
<!-- Created with Inkscape (http://www.inkscape.org/) -->

<svg
   xmlns:dc="http://purl.org/dc/elements/1.1/"
   xmlns:cc="http://creativecommons.org/ns#"
   xmlns:rdf="http://www.w3.org/1999/02/22-rdf-syntax-ns#"
   xmlns:svg="http://www.w3.org/2000/svg"
   xmlns="http://www.w3.org/2000/svg"
   xmlns:sodipodi="http://sodipodi.sourceforge.net/DTD/sodipodi-0.dtd"
   xmlns:inkscape="http://www.inkscape.org/namespaces/inkscape"
   width="32"
   height="32"
   viewBox="0 0 8.4666659 8.4666659"
   version="1.1"
   id="svg8"
   inkscape:version="0.92.4 (f8dce91, 2019-08-02)"
   sodipodi:docname="simple_brush.svg">
  <defs
     id="defs2" />
  <sodipodi:namedview
     id="base"
     pagecolor="#ffffff"
     bordercolor="#666666"
     borderopacity="1.0"
     inkscape:pageopacity="0.0"
     inkscape:pageshadow="2"
     inkscape:zoom="7.9195959"
     inkscape:cx="7.5915595"
     inkscape:cy="41.570724"
     inkscape:document-units="mm"
     inkscape:current-layer="layer1"
     showgrid="false"
     units="px"
     inkscape:window-width="960"
     inkscape:window-height="1025"
     inkscape:window-x="960"
     inkscape:window-y="27"
     inkscape:window-maximized="0">
    <inkscape:grid
       type="xygrid"
       id="grid30" />
  </sodipodi:namedview>
  <metadata
     id="metadata5">
    <rdf:RDF>
      <cc:Work
         rdf:about="">
        <dc:format>image/svg+xml</dc:format>
        <dc:type
           rdf:resource="http://purl.org/dc/dcmitype/StillImage" />
        <dc:title></dc:title>
      </cc:Work>
    </rdf:RDF>
  </metadata>
  <g
     inkscape:label="Layer 1"
     inkscape:groupmode="layer"
     id="layer1"
     transform="translate(0,-288.53334)">
    <path
       style="fill:none;stroke:#000000;stroke-width:0.19821633px;stroke-linecap:butt;stroke-linejoin:miter;stroke-opacity:1"
       d="m 3.0632245,294.74108 c -0.191821,-0.0537 -0.7199282,0.0576 -1.2234338,0.49155 -0.3430282,0.26996 -0.7175821,0.32881 -1.1010905,0.3277 0.3027773,0.37555 0.6716601,0.52979 1.0552118,0.6349 0.4231042,0.036 0.8462083,0.0858 1.2693125,-0.14336 0.3360484,-0.26027 0.5738657,-0.56001 0.5046666,-0.98309 z"
       id="path4550"
       inkscape:connector-curvature="0"
       sodipodi:nodetypes="ccccccc" />
    <path
       style="fill:#ffffff;fill-opacity:1;stroke:#000000;stroke-width:0.26458332px;stroke-linecap:butt;stroke-linejoin:miter;stroke-opacity:1"
       d="m 3.3841433,295.01866 c -0.2338609,-0.0668 -0.3209187,-0.27758 -0.3209187,-0.27758 v 0 0 c -0.038914,-0.41344 0.1831369,-0.68458 0.5170688,-1.16411 l 3.0946801,-3.80338 c 0.2329353,-0.27486 0.4912148,-0.34571 0.6614583,-0.30711 0.064449,0.119 0.084187,0.24199 -0.094494,0.54334 0,0 -2.2904972,3.70693 -2.8918537,4.44191 -0.3802501,0.47412 -0.7821925,0.61705 -0.9659403,0.56693 z"
       id="path4552"
       inkscape:connector-curvature="0"
       sodipodi:nodetypes="cccccccccc" />
  </g>
</svg>
